<svg xmlns="http://www.w3.org/2000/svg" viewBox="0 0 847 220" width="847" height="220" fill="none">
  <g>
    <path d="M28.4 150.72C31.759999999999998 150.72 34.879999999999995 148.2 35.6 144.84L46.519999999999996 93.96000000000001L71.72 146.76C73.03999999999999 149.52 75.08 150.72 77.24 150.72C80.84 150.72 83.36 147.84 83.96000000000001 144.84L98.84 74.88000000000001C99.44 72.24000000000001 97.64 68.88000000000001 94.16 68.88000000000001C90.8 68.88000000000001 87.67999999999999 71.64 86.96 74.88000000000001L76.03999999999999 125.88L50.36 72.12C49.519999999999996 70.44 48.08 69.0 45.68 69.0C42.32 69.0 39.44 71.64 38.72 74.88000000000001L23.72 144.84C23.0 147.96 25.4 150.72 28.4 150.72Z" fill="#111111"/><path d="M121.72 153.06998072888246C126.39999999999999 153.06998072888246 131.79999999999998 151.14998072888247 136.6 147.06998072888246L136.24 148.74998072888246C135.51999999999998 151.98998072888244 137.56 154.26998072888244 140.68 154.26998072888244C143.92 154.26998072888244 146.79999999999998 151.98998072888244 147.64 148.26998072888244L158.2 98.34998072888246C155.44 96.90998072888246 148.72 93.18998072888246 140.07999999999998 93.18998072888246C121.0 93.18998072888246 103.36 114.54998072888246 103.36 133.98998072888247C103.36 145.62998072888246 110.56 153.06998072888246 121.72 153.06998072888246ZM124.6 142.02998072888246C118.72 142.02998072888246 115.11999999999999 139.50998072888245 115.11999999999999 131.94998072888245C115.11999999999999 119.70998072888246 126.39999999999999 104.22998072888245 138.04 104.22998072888245C140.56 104.22998072888245 143.32 104.82998072888246 145.24 105.66998072888245L138.28 136.98998072888247C135.16 139.26998072888244 130.0 142.02998072888246 124.6 142.02998072888246Z" fill="#111111"/><path d="M171.0 153.6415428926346C174.6 153.6415428926346 177.23999999999998 151.0015428926346 177.83999999999997 147.6415428926346L180.0 137.56154289263458C181.92 128.68154289263458 184.44 123.1615428926346 189.35999999999999 116.68154289263458C195.11999999999998 109.24154289263458 201.0 104.92154289263459 205.79999999999998 104.92154289263459C211.32 104.92154289263459 212.88 109.00154289263459 208.79999999999998 128.0815428926346C206.76 137.56154289263458 205.67999999999998 142.7215428926346 204.6 148.0015428926346C204.0 150.8815428926346 206.04 153.6415428926346 209.16 153.6415428926346C212.39999999999998 153.6415428926346 215.27999999999997 150.8815428926346 215.88 147.8815428926346C217.32 141.0415428926346 218.27999999999997 136.96154289263458 220.44 126.8815428926346C225.83999999999997 101.80154289263459 222.35999999999999 93.7615428926346 209.27999999999997 93.7615428926346C201.12 93.7615428926346 192.95999999999998 98.92154289263459 186.35999999999999 108.52154289263459L188.27999999999997 99.4015428926346C189.0 96.1615428926346 186.95999999999998 93.64154289263459 183.95999999999998 93.64154289263459C180.83999999999997 93.64154289263459 177.48 96.1615428926346 176.76 99.4015428926346L166.44 148.12154289263458C165.83999999999997 151.0015428926346 167.88 153.6415428926346 171.0 153.6415428926346Z" fill="#111111"/><path d="M256.03999999999996 152.0021396407015C264.91999999999996 152.0021396407015 274.28 146.3621396407015 279.68 140.7221396407015C280.64 139.7621396407015 281.96 137.8421396407015 281.96 135.8021396407015C281.96 133.2821396407015 280.03999999999996 131.3621396407015 277.4 131.3621396407015C274.64 131.3621396407015 272.71999999999997 133.2821396407015 271.64 134.3621396407015C268.03999999999996 138.0821396407015 263.71999999999997 141.2021396407015 256.88 141.2021396407015C251.23999999999998 141.2021396407015 245.11999999999998 136.64213964070152 245.11999999999998 129.0821396407015C245.11999999999998 118.52213964070151 257.0 102.9221396407015 266.24 102.9221396407015C270.79999999999995 102.9221396407015 272.84 105.2021396407015 275.12 108.68213964070151C275.71999999999997 109.52213964070151 276.56 110.1221396407015 278.59999999999997 110.1221396407015C282.2 110.1221396407015 285.68 106.8821396407015 285.68 103.2821396407015C285.68 102.3221396407015 285.56 101.24213964070151 283.76 98.7221396407015C281.0 95.0021396407015 276.56 92.0021396407015 268.64 92.0021396407015C252.2 92.0021396407015 233.6 113.3621396407015 233.6 131.1221396407015C233.6 143.6021396407015 243.44 152.0021396407015 256.03999999999996 152.0021396407015Z" fill="#111111"/><path d="M294.4 170.87243867011543C297.15999999999997 170.87243867011543 299.44 168.95243867011544 300.64 167.15243867011543L347.44 97.55243867011544C348.15999999999997 96.47243867011545 348.64 95.03243867011544 348.64 93.95243867011544C348.64 91.19243867011545 346.6 89.27243867011543 343.96 89.27243867011543C341.68 89.27243867011543 339.28 90.47243867011545 337.6 92.99243867011543L315.15999999999997 126.47243867011544L305.56 92.99243867011543C305.08 91.19243867011545 303.52 89.39243867011544 301.12 89.39243867011544C297.64 89.39243867011544 293.92 92.63243867011545 293.92 96.35243867011545C293.92 97.43243867011545 294.28 98.63243867011545 294.76 100.31243867011544L306.04 140.03243867011543L291.76 161.39243867011544C290.44 163.43243867011543 289.84 164.51243867011544 289.84 166.31243867011545C289.84 168.95243867011544 291.76 170.87243867011543 294.4 170.87243867011543Z" fill="#111111"/><path d="M401.0928 148.64170653733206C412.7328 148.64170653733206 424.01279999999997 143.48170653733206 432.89279999999997 134.36170653733205C434.2128 132.92170653733206 434.9328 131.24170653733205 434.9328 129.56170653733204C434.9328 126.80170653733205 432.77279999999996 124.76170653733205 430.01279999999997 124.76170653733205C428.2128 124.76170653733205 426.6528 125.36170653733205 424.8528 127.16170653733205C418.01279999999997 134.24170653733205 410.8128 137.00170653733204 403.6128 137.00170653733204C393.5328 137.00170653733204 385.2528 130.28170653733204 385.2528 118.28170653733204C385.2528 102.68170653733205 402.6528 78.20170653733204 418.1328 78.20170653733204C424.3728 78.20170653733204 427.6128 80.84170653733204 429.2928 83.00170653733205L429.1728 83.60170653733205C428.6928 86.12170653733205 430.8528 88.52170653733205 433.4928 88.52170653733205C437.57280000000003 88.52170653733205 440.0928 85.52170653733205 440.9328 82.52170653733205L442.8528 75.32170653733205C443.6928 72.08170653733205 441.4128 69.32170653733205 438.2928 69.32170653733205C436.7328 69.32170653733205 435.77279999999996 69.80170653733205 434.57280000000003 70.64170653733206C431.4528 68.36170653733205 426.4128 66.56170653733206 420.5328 66.56170653733206C398.0928 66.56170653733206 372.8928 97.52170653733205 372.8928 120.44170653733205C372.8928 136.88170653733204 384.4128 148.64170653733206 401.0928 148.64170653733206Z" fill="#111111"/><path d="M447.4928 150.89044170145306C450.6128 150.89044170145306 453.7328 148.73044170145306 454.5728 144.89044170145306L458.41279999999995 127.01044170145306C459.1328 123.77044170145305 460.09279999999995 120.41044170145305 462.97279999999995 116.57044170145306C466.21279999999996 112.13044170145305 475.09279999999995 102.05044170145305 481.5728 102.05044170145305C484.45279999999997 102.05044170145305 485.41279999999995 103.85044170145306 485.41279999999995 109.37044170145305C485.41279999999995 119.45044170145306 481.8128 132.89044170145306 479.0528 145.25044170145304C478.45279999999997 148.01044170145306 480.01279999999997 150.77044170145305 483.6128 150.77044170145305C486.6128 150.77044170145305 489.3728 148.61044170145306 490.33279999999996 145.49044170145305C493.33279999999996 135.53044170145304 497.0528 115.97044170145305 497.0528 106.97044170145305C497.0528 96.05044170145305 493.45279999999997 90.65044170145305 485.1728 90.65044170145305C477.8528 90.65044170145305 469.09279999999995 96.29044170145306 463.45279999999997 103.01044170145306L469.21279999999996 76.01044170145306C469.8128 73.13044170145305 468.2528 70.13044170145305 464.65279999999996 70.13044170145305C461.53279999999995 70.13044170145305 458.41279999999995 72.77044170145305 457.6928 76.01044170145306L442.9328 145.13044170145307C442.33279999999996 148.13044170145307 444.3728 150.89044170145306 447.4928 150.89044170145306Z" fill="#111111"/><path d="M526.6528 153.10100359154745C531.3327999999999 153.10100359154745 536.7327999999999 151.18100359154747 541.5328 147.10100359154745L541.1727999999999 148.78100359154746C540.4527999999999 152.02100359154744 542.4928 154.30100359154744 545.6127999999999 154.30100359154744C548.8527999999999 154.30100359154744 551.7327999999999 152.02100359154744 552.5727999999999 148.30100359154744L563.1328 98.38100359154745C560.3728 96.94100359154746 553.6528 93.22100359154746 545.0128 93.22100359154746C525.9327999999999 93.22100359154746 508.29279999999994 114.58100359154746 508.29279999999994 134.02100359154747C508.29279999999994 145.66100359154746 515.4928 153.10100359154745 526.6528 153.10100359154745ZM529.5328 142.06100359154746C523.6528 142.06100359154746 520.0527999999999 139.54100359154745 520.0527999999999 131.98100359154745C520.0527999999999 119.74100359154745 531.3327999999999 104.26100359154745 542.9727999999999 104.26100359154745C545.4928 104.26100359154745 548.2528 104.86100359154746 550.1727999999999 105.70100359154745L543.2127999999999 137.02100359154747C540.0927999999999 139.30100359154744 534.9327999999999 142.06100359154746 529.5328 142.06100359154746Z" fill="#111111"/><path d="M586.3728 153.98966943253527C594.1727999999999 153.98966943253527 601.2528 150.74966943253526 604.8528 147.02966943253526L604.7328 148.94966943253525C604.6128 151.58966943253526 606.7728 153.62966943253525 609.6528 153.62966943253525C612.6528 153.62966943253525 615.8928 151.10966943253524 616.6128 147.86966943253526L626.9327999999999 99.14966943253526C627.5328 96.26966943253525 625.7328 93.62966943253525 622.3728 93.62966943253525C619.2528 93.62966943253525 616.2528 95.90966943253525 615.5328 99.14966943253526L607.9728 133.34966943253525C607.6128 135.14966943253526 607.1328 136.10966943253524 604.9728 137.66966943253524C603.4128 138.86966943253526 596.3328 143.18966943253525 589.8528 143.18966943253525C586.3728 143.18966943253525 584.8127999999999 140.66966943253524 584.8127999999999 135.26966943253524C584.8127999999999 124.70966943253525 589.9728 108.02966943253526 592.3728 100.22966943253525C593.6927999999999 96.02966943253526 592.0128 93.62966943253525 588.1727999999999 93.62966943253525C584.6927999999999 93.62966943253525 582.5328 95.78966943253525 581.2128 99.74966943253526C577.6128 110.54966943253525 573.1727999999999 128.66966943253524 573.1727999999999 139.34966943253525C573.1727999999999 150.26966943253527 577.8528 153.98966943253527 586.3728 153.98966943253527Z" fill="#111111"/><path d="M639.9727999999999 152.07635545572526C643.0927999999999 152.07635545572526 646.2127999999999 149.91635545572527 647.0527999999999 146.07635545572526L650.8928 128.19635545572527C651.6127999999999 124.95635545572526 652.5727999999999 121.59635545572526 655.4527999999999 117.75635545572527C658.6927999999999 113.31635545572526 667.5727999999999 103.23635545572526 674.0527999999999 103.23635545572526C676.9327999999999 103.23635545572526 677.8928 105.03635545572527 677.8928 110.55635545572525C677.8928 120.63635545572527 674.2927999999999 134.07635545572526 671.5328 146.43635545572525C670.9327999999999 149.19635545572527 672.4928 151.95635545572526 676.0927999999999 151.95635545572526C679.0927999999999 151.95635545572526 681.8527999999999 149.79635545572526 682.8127999999999 146.67635545572526C685.8127999999999 136.71635545572525 689.5328 117.15635545572526 689.5328 108.15635545572526C689.5328 97.23635545572526 685.9327999999999 91.83635545572525 677.6528 91.83635545572525C670.3327999999999 91.83635545572525 661.5727999999999 97.47635545572527 655.9327999999999 104.19635545572527L661.6927999999999 77.19635545572527C662.2927999999999 74.31635545572526 660.7327999999999 71.31635545572526 657.1328 71.31635545572526C654.0128 71.31635545572526 650.8928 73.95635545572526 650.1727999999999 77.19635545572527L635.4128 146.31635545572527C634.8127999999999 149.31635545572527 636.8527999999999 152.07635545572526 639.9727999999999 152.07635545572526Z" fill="#111111"/><path d="M719.1328 149.34739231867403C723.8127999999999 149.34739231867403 729.2127999999999 147.42739231867404 734.0128 143.34739231867403L733.6528 145.02739231867403C732.9327999999999 148.267392318674 734.9728 150.547392318674 738.0927999999999 150.547392318674C741.3327999999999 150.547392318674 744.2127999999999 148.267392318674 745.0527999999999 144.547392318674L755.6128 94.62739231867403C752.8528 93.18739231867403 746.1328 89.46739231867403 737.4928 89.46739231867403C718.4128 89.46739231867403 700.7728 110.82739231867403 700.7728 130.267392318674C700.7728 141.90739231867403 707.9728 149.34739231867403 719.1328 149.34739231867403ZM722.0128 138.30739231867403C716.1328 138.30739231867403 712.5328 135.78739231867402 712.5328 128.22739231867402C712.5328 115.98739231867403 723.8127999999999 100.50739231867402 735.4527999999999 100.50739231867402C737.9728 100.50739231867402 740.7328 101.10739231867403 742.6528 101.94739231867402L735.6927999999999 133.267392318674C732.5727999999999 135.547392318674 727.4128 138.30739231867403 722.0128 138.30739231867403Z" fill="#111111"/><path d="M768.4128 147.77719130980051C772.0128 147.77719130980051 774.6528 145.13719130980053 775.2528 141.77719130980051L777.4128 131.69719130980053C779.3328 122.81719130980052 781.8528 117.29719130980052 786.7728 110.8171913098005C792.5328 103.37719130980051 798.4128 99.05719130980052 803.2128 99.05719130980052C808.7328 99.05719130980052 810.2927999999999 103.13719130980051 806.2128 122.21719130980051C804.1727999999999 131.69719130980053 803.0928 136.85719130980053 802.0128 142.13719130980053C801.4128 145.01719130980052 803.4528 147.77719130980051 806.5728 147.77719130980051C809.8128 147.77719130980051 812.6928 145.01719130980052 813.2927999999999 142.01719130980052C814.7328 135.17719130980052 815.6928 131.0971913098005 817.8528 121.01719130980052C823.2528 95.93719130980051 819.7728 87.89719130980052 806.6928 87.89719130980052C798.5328 87.89719130980052 790.3728 93.05719130980052 783.7728 102.65719130980051L785.6928 93.53719130980052C786.4128 90.29719130980052 784.3728 87.77719130980051 781.3728 87.77719130980051C778.2528 87.77719130980051 774.8928 90.29719130980052 774.1727999999999 93.53719130980052L763.8528 142.2571913098005C763.2528 145.13719130980053 765.2927999999999 147.77719130980051 768.4128 147.77719130980051Z" fill="#111111"/>
  </g>
</svg>