<svg width="163" height="30" viewBox="0 0 163 30" fill="none" xmlns="http://www.w3.org/2000/svg">
<path d="M19.0985 28.9944H0V1.61426H19.0985V4.92692H3.88731V13.1748H18.2873V16.4198H3.88731V25.6818H19.0985V28.9944Z" fill="#270639"/>
<path d="M20.1462 28.9945L28.1913 18.5833L20.5519 8.71289H24.7434L30.4899 16.0819L36.2363 8.71289H40.3603L32.7208 18.5833L40.7659 28.9945H36.4729L30.3885 21.1185L24.3378 28.9945H20.1462Z" fill="#270639"/>
<path d="M85.4191 28.9943C84.3374 28.9943 83.4923 28.7239 82.8839 28.1492C82.2754 27.6084 81.9712 26.7633 81.9712 25.6816V11.6197H78.1853V8.71266H82.005V2.62817H85.7233V8.71266H91.0303V11.6197H85.7571V26.0196H91.5712V28.9943H85.3853H85.4191Z" fill="#270639"/>
<path d="M102.118 29.4001C99.9888 29.4001 98.1635 28.9607 96.6086 28.0818C95.0536 27.2029 93.8705 25.9861 93.0255 24.3973C92.1804 22.8086 91.741 20.9156 91.741 18.7861C91.741 16.6565 92.1466 14.7974 93.0255 13.2086C93.9043 11.6199 95.0536 10.4368 96.5748 9.55794C98.0959 8.71287 99.8874 8.27344 101.949 8.27344C104.011 8.27344 105.6 8.67907 107.02 9.45653C108.44 10.234 109.555 11.3495 110.332 12.803C111.11 14.2565 111.516 15.9467 111.516 17.941V19.4621H95.3579C95.4593 21.5917 96.1353 23.248 97.3184 24.3973C98.5015 25.5804 100.09 26.1889 102.051 26.1889C103.437 26.1889 104.586 25.9184 105.532 25.31C106.479 24.7354 107.121 23.8903 107.493 22.7748H111.347C110.839 24.8706 109.792 26.4931 108.169 27.6424C106.547 28.7917 104.518 29.3663 102.118 29.3663V29.4001ZM95.5269 16.7241H107.899C107.73 15.0678 107.121 13.7495 106.073 12.8368C105.025 11.9241 103.64 11.4509 101.916 11.4509C100.192 11.4509 98.8057 11.9241 97.6902 12.8368C96.5748 13.7495 95.8311 15.0678 95.5269 16.7241Z" fill="#270639"/>
<path d="M114.051 28.9944V0.600098H117.837V28.9944H114.051Z" fill="#270639"/>
<path d="M121.69 28.9944V0.600098H125.476V28.9944H121.69Z" fill="#270639"/>
<path d="M150.456 28.9943V12.6338H148.496V8.71272H152.552V12.4986H153.972C154.547 11.2479 155.392 10.3014 156.575 9.59159C157.758 8.88173 159.144 8.5437 160.732 8.5437H162.389V11.7888H160.53C158.501 11.7888 156.947 12.3972 155.831 13.5803C154.716 14.7634 154.175 16.3859 154.175 18.4141V28.9943H150.423H150.456Z" fill="#270639"/>
<path d="M135.143 29.4001C132.844 29.4001 131.053 28.8255 129.734 27.71C128.416 26.5607 127.774 25.0734 127.774 23.2142C127.774 21.3551 128.416 19.7664 129.734 18.7185C131.053 17.6368 132.912 17.1297 135.379 17.1297H142.309V16.2171C142.309 13.0734 142.444 11.4847 138.996 11.4847C136.191 11.4847 132.641 12.5664 132.033 14.696H128.213C128.551 12.7016 129.531 11.1467 131.086 10.0312C132.675 8.91569 135.21 8.27344 138.219 8.27344C140.551 8.27344 139.976 10.8424 142.275 11.3833C144.236 11.8565 145.892 13.6143 145.892 16.1157V25.141H147.717V29.0621H143.661V25.9522H142.241C141.531 27.0339 140.585 27.879 139.368 28.4875C138.151 29.0959 136.731 29.4001 135.143 29.4001ZM135.65 26.3579C136.867 26.3579 137.982 26.1213 138.996 25.6142C140.01 25.1072 140.822 24.4311 141.396 23.5861C141.971 22.741 142.275 21.7945 142.275 20.7804V19.8678H135.582C132.743 19.8678 131.323 20.9156 131.323 23.0452C131.323 24.0593 131.695 24.8706 132.472 25.4452C133.25 26.0537 134.298 26.3579 135.65 26.3579Z" fill="#270639"/>
<path d="M70.039 29.4C67.2334 29.4 65.0024 28.8254 63.3799 27.6423C61.7574 26.4592 60.8785 24.8367 60.7095 22.7409H64.4616C64.6306 23.9916 65.1714 24.9043 66.0841 25.4789C66.9968 26.0535 68.3827 26.3578 70.1742 26.3578C73.3179 26.3578 74.9066 25.3775 74.9066 23.3831C74.9066 22.5719 74.67 21.9634 74.1968 21.524C73.7235 21.0845 72.2362 21.186 70.039 21.186C67.8418 21.186 70.2756 19.293 68.0447 19.293C65.8137 19.293 61.7236 17.8733 61.656 14.3578C61.656 12.4987 62.3658 11.0113 63.7855 9.92966C65.2052 8.84797 67.132 8.30713 69.5996 8.30713C72.0672 8.30713 74.1629 8.84797 75.6841 9.96346C77.1714 11.079 78.0165 12.6339 78.2193 14.6282H74.5348C74.2982 13.5127 73.7911 12.6677 72.9461 12.1268C72.1348 11.586 70.9855 11.3156 69.4982 11.3156C68.1123 11.3156 67.0644 11.5522 66.3207 12.0254C65.5771 12.4987 65.2052 13.1747 65.2052 14.0874C65.2052 14.7972 65.4419 15.3381 65.9151 15.7437C66.3883 16.1494 66.5573 16.1832 68.9911 16.1832C71.4249 16.1832 69.363 18.1437 70.6813 18.1437C71.9996 18.1437 74.8728 17.4677 77.0362 19.3944C78.0165 20.2733 78.4221 21.5578 78.4221 23.1127C78.4221 25.1071 77.7122 26.6282 76.2587 27.7437C74.8052 28.8592 72.7432 29.4 70.039 29.4Z" fill="#270639"/>
<path d="M50.0278 29.4C47.9321 29.4 46.1067 28.9606 44.5518 28.0817C42.9969 27.2028 41.78 25.9859 40.9349 24.431C40.0898 22.8423 39.6504 20.9831 39.6504 18.8536C39.6504 16.724 40.0898 14.8649 40.9349 13.2761C41.78 11.6874 42.9969 10.4705 44.5518 9.62543C46.1067 8.74656 47.9659 8.30713 50.0278 8.30713C52.0898 8.30713 54.0503 8.74656 55.6053 9.59163C57.1602 10.4367 58.3433 11.6536 59.1884 13.2423C60.0334 14.8311 60.4729 16.6902 60.4729 18.8536C60.4729 21.0169 57.1264 21.3212 56.2813 22.9099C55.4363 24.4986 54.2532 25.7155 52.6982 26.5944C51.1433 27.4733 52.225 29.4 50.0616 29.4H50.0278ZM50.0278 26.0874C52.1236 26.0874 50.8391 23.924 51.9884 22.6395C53.1377 21.355 56.6532 21.1184 56.6532 18.8536C56.6532 16.5888 56.0785 14.7634 54.9292 13.5127C53.7799 12.262 52.1236 11.6198 50.0278 11.6198C47.9321 11.6198 46.3433 12.262 45.1602 13.5127C43.9771 14.7972 43.4025 16.555 43.4025 18.8536C43.4025 21.1522 43.9771 22.9099 45.1602 24.1944C46.3433 25.4789 47.9659 26.0874 50.0278 26.0874Z" fill="#270639"/>
</svg>
